HIERARCHY
ROOT Hips
{
	OFFSET 0.000000 0.000000 0.000000
	CHANNELS 6 Xposition Yposition Zposition Xrotation Yrotation Zrotation
	JOINT LeftUpLeg_virtual
	{
		OFFSET 0.000000 0.000000 0.000000
		CHANNELS 3 Xrotation Yrotation Zrotation
		JOINT LeftUpLeg
		{
			OFFSET 13.026900 -6.336304 -1.092800
			CHANNELS 3 Xrotation Yrotation Zrotation
			JOINT LeftLeg
			{
				OFFSET 0.524474 -46.096886 9.782700
				CHANNELS 3 Xrotation Yrotation Zrotation
				JOINT LeftFoot
				{
					OFFSET -0.524474 -53.427422 -12.948200
					CHANNELS 3 Xrotation Yrotation Zrotation
					JOINT LeftToeBase
					{
						OFFSET 0.192200 -14.009700 16.364100
						CHANNELS 3 Xrotation Yrotation Zrotation
						JOINT LeftToe_End
						{
							OFFSET -1.784700 -0.561700 9.474800
							CHANNELS 3 Xrotation Yrotation Zrotation
							End Site
							{
								OFFSET 0 0 0
							}
						}
					}
				}
			}
		}
	}
	JOINT RightUpLeg_virtual
	{
		OFFSET 0.000000 0.000000 0.000000
		CHANNELS 3 Xrotation Yrotation Zrotation
		JOINT RightUpLeg
		{
			OFFSET -12.883000 -6.336304 -1.092800
			CHANNELS 3 Xrotation Yrotation Zrotation
			JOINT RightLeg
			{
				OFFSET -0.524587 -46.096825 9.782800
				CHANNELS 3 Xrotation Yrotation Zrotation
				JOINT RightFoot
				{
					OFFSET 0.524587 -53.427383 -12.948300
					CHANNELS 3 Xrotation Yrotation Zrotation
					JOINT RightToeBase
					{
						OFFSET -0.192200 -14.009700 16.364100
						CHANNELS 3 Xrotation Yrotation Zrotation
						JOINT RightToe_End
						{
							OFFSET 1.784700 -0.561700 9.474800
							CHANNELS 3 Xrotation Yrotation Zrotation
							End Site
							{
								OFFSET 0 0 0
							}
						}
					}
				}
			}
		}
	}
	JOINT Spine_virtual
	{
		OFFSET 0.000000 0.000000 0.000000
		CHANNELS 3 Xrotation Yrotation Zrotation
		JOINT Spine
		{
			OFFSET 0.072000 7.257294 -0.789700
			CHANNELS 3 Xrotation Yrotation Zrotation
			JOINT Spine1
			{
				OFFSET 0.000000 12.508769 -0.658067
				CHANNELS 3 Xrotation Yrotation Zrotation
				JOINT Spine1_split
				{
					OFFSET 0.000000 12.508769 -0.658067
					CHANNELS 3 Xrotation Yrotation Zrotation
					JOINT Spine2
					{
						OFFSET 0.000000 12.508769 -0.658067
						CHANNELS 3 Xrotation Yrotation Zrotation
						JOINT Neck_virtual
						{
							OFFSET 0.000000 0.000000 0.000000
							CHANNELS 3 Xrotation Yrotation Zrotation
							JOINT Neck
							{
								OFFSET 0.000000 14.033295 7.520400
								CHANNELS 3 Xrotation Yrotation Zrotation
								JOINT Head
								{
									OFFSET 0.000000 8.198502 5.703100
									CHANNELS 3 Xrotation Yrotation Zrotation
									JOINT HeadTop_End
									{
										OFFSET 0.000000 17.760803 13.332701
										CHANNELS 3 Xrotation Yrotation Zrotation
										End Site
										{
											OFFSET 0 0 0
										}
									}
								}
							}
						}
						JOINT LeftShoulder_virtual
						{
							OFFSET 0.000000 0.000000 0.000000
							CHANNELS 3 Xrotation Yrotation Zrotation
							JOINT LeftShoulder
							{
								OFFSET 6.292450 5.785301 -0.669000
								CHANNELS 3 Xrotation Yrotation Zrotation
								JOINT LeftShoulder_split
								{
									OFFSET 6.292450 5.785301 -0.669000
									CHANNELS 3 Xrotation Yrotation Zrotation
									JOINT LeftArm
									{
										OFFSET 13.907140 -6.093903 1.965100
										CHANNELS 3 Xrotation Yrotation Zrotation
										JOINT LeftForeArm
										{
											OFFSET 34.140198 0.000000 0.000000
											CHANNELS 3 Xrotation Yrotation Zrotation
											JOINT LeftHand
											{
												OFFSET 40.960209 0.000000 0.000000
												CHANNELS 3 Xrotation Yrotation Zrotation
												End Site
												{
													OFFSET 0 0 0
												}
											}
										}
									}
								}
							}
						}
						JOINT RightShoulder_virtual
						{
							OFFSET 0.000000 0.000000 0.000000
							CHANNELS 3 Xrotation Yrotation Zrotation
							JOINT RightShoulder
							{
								OFFSET -6.292450 5.785301 -0.669000
								CHANNELS 3 Xrotation Yrotation Zrotation
								JOINT RightShoulder_split
								{
									OFFSET -6.292450 5.785301 -0.669000
									CHANNELS 3 Xrotation Yrotation Zrotation
									JOINT RightArm
									{
										OFFSET -13.907140 -6.093903 1.965100
										CHANNELS 3 Xrotation Yrotation Zrotation
										JOINT RightForeArm
										{
											OFFSET -34.140198 0.000000 0.000000
											CHANNELS 3 Xrotation Yrotation Zrotation
											JOINT RightHand
											{
												OFFSET -40.960209 0.000000 0.000000
												CHANNELS 3 Xrotation Yrotation Zrotation
												End Site
												{
													OFFSET 0 0 0
												}
											}
										}
									}
								}
							}
						}
					}
				}
			}
		}
	}
}
MOTION
Frames: 4
Frame Time: 0.03333333
11.016488 103.513733 -13.729931 0.000000 0.000000 0.000000 8.736200 12.313424 0.878499 -8.935414 10.014651 8.620512 48.811718 -2.272394 5.586498 -9.196846 -8.310464 -16.125820 -17.920801 0.856708 -1.124025 0.000000 0.000000 0.000000 9.383641 11.179760 0.246879 -34.095512 -6.886741 -7.671194 42.354642 0.976275 2.625929 -13.333877 2.146814 -0.465139 -2.182580 0.932627 -0.210335 0.000000 0.000000 0.000000 8.372275 12.387415 0.820309 1.002265 -2.183298 -1.278728 2.513388 -1.632317 1.847164 -0.767161 0.741634 -0.071789 0.000000 0.000000 0.000000 2.710339 -2.613505 2.407339 -4.286511 3.020621 1.307298 -12.069778 4.377427 8.378438 0.000000 0.000000 0.000000 0.914221 -1.808401 2.583147 0.862858 1.996480 -0.668098 3.746903 -6.358618 7.177057 -43.226444 -7.757819 -37.520152 173.620772 -63.981449 173.781924 0.000000 0.000000 0.000000 1.248078 -3.016975 1.827421 -0.660289 -18.809602 6.741780 -0.494247 8.716868 -4.510545 -35.069511 9.512626 55.107510 -172.790057 62.466397 174.621422 0.000000 0.000000 0.000000 
11.307249 105.209366 -16.478642 0.000000 0.000000 0.000000 11.413765 13.861863 -0.996887 -22.129364 6.535513 13.680651 59.330916 -2.810576 4.644370 4.945634 -10.192130 -12.658820 -15.432063 1.909559 -4.383983 0.000000 0.000000 0.000000 10.626894 11.577656 -1.043128 -33.607888 -8.164793 -6.601977 40.290726 0.956229 2.439583 -13.559085 2.029199 0.348796 -5.686564 0.749809 -0.744098 0.000000 0.000000 0.000000 10.465289 12.779514 -0.305693 4.937153 -1.630228 -0.428430 2.598173 -1.219007 0.868697 0.543107 0.783492 -0.259626 0.000000 0.000000 0.000000 2.705804 -2.234075 1.752907 -5.403057 2.542054 -0.749254 -15.946096 1.589382 9.706287 0.000000 0.000000 0.000000 1.123319 -1.428781 1.821615 1.012296 0.909355 10.664890 3.784204 -3.570570 2.849627 -59.318977 -6.605399 -35.928752 172.985141 -68.537260 172.527833 0.000000 0.000000 0.000000 1.450647 -2.377016 1.021378 -2.409226 -17.833730 -0.921244 0.281486 6.478495 -4.723303 -53.023752 4.036454 58.083669 -172.906990 65.718967 173.873831 0.000000 0.000000 0.000000 
11.276106 106.034111 -18.390064 0.000000 0.000000 0.000000 13.384990 13.679331 -2.020168 -35.622046 4.063585 18.258380 69.615180 -1.813265 2.280334 16.772537 -8.328551 -6.083586 -10.344897 2.711672 -8.135297 0.000000 0.000000 0.000000 11.935033 11.149873 -1.855999 -33.830467 -9.554714 -6.386973 39.675712 -0.289297 2.622602 -14.089876 1.407254 -0.899024 -9.366728 0.248529 -0.608584 0.000000 0.000000 0.000000 12.473345 11.804162 -0.953911 8.156655 -0.986641 -0.315719 3.038986 -0.804075 0.073023 1.697421 0.872101 -0.315532 0.000000 0.000000 0.000000 3.229865 -1.786146 1.222843 -6.498781 2.114390 -2.487133 -19.922397 -0.645190 10.724349 0.000000 0.000000 0.000000 1.817190 -1.100244 1.144097 1.195861 0.380779 20.969099 3.720932 -0.320217 -0.309232 -71.867633 -6.096275 -31.897448 168.547321 -76.442364 167.865491 0.000000 0.000000 0.000000 2.242130 -1.714406 0.320454 -3.962944 -16.174233 -8.865995 1.022617 3.388524 -4.463856 -66.077825 -2.723917 57.430648 -174.066346 69.657889 173.447586 0.000000 0.000000 0.000000 
11.006339 106.465340 -19.753475 0.000000 0.000000 0.000000 14.516858 12.040353 -2.023292 -47.051732 3.218400 21.336077 77.066828 -0.620228 -0.576477 23.595983 -4.204380 0.299596 -6.233016 2.905759 -10.338322 0.000000 0.000000 0.000000 13.328262 9.459203 -2.008150 -35.148427 -10.922961 -7.231395 39.777936 -2.229684 3.306314 -14.063922 0.724562 -3.489780 -11.716107 -0.424919 0.089046 0.000000 0.000000 0.000000 14.011327 9.720979 -1.014441 9.982317 -0.439194 -0.869543 3.661044 -0.463430 -0.317638 1.722782 0.562934 0.200465 0.000000 0.000000 0.000000 4.073282 -1.321250 1.007071 -7.445140 1.773616 -3.314619 -23.022553 -2.050706 11.518008 0.000000 0.000000 0.000000 2.738626 -0.839987 0.841365 1.117050 0.667091 28.103281 3.415081 2.202339 -3.109836 -79.247085 -6.515463 -27.429543 152.993915 -83.826133 152.767672 0.000000 0.000000 0.000000 3.334197 -1.214991 -0.079422 -4.851187 -14.172871 -15.058732 1.440183 0.691283 -3.226728 -71.876963 -7.758125 54.872418 -176.543028 73.337169 174.008577 0.000000 0.000000 0.000000 
